<?xml version="1.0" encoding="utf-8"?>
<!-- Generator: Adobe Illustrator 24.2.1, SVG Export Plug-In . SVG Version: 6.00 Build 0)  -->
<svg version="1.1" id="Capa_1" xmlns="http://www.w3.org/2000/svg" xmlns:xlink="http://www.w3.org/1999/xlink" x="0px" y="0px"
	 viewBox="0 0 160.2 44.7" style="enable-background:new 0 0 160.2 44.7;" xml:space="preserve">
<style type="text/css">
	.st0{fill:#FF0000;}
	.st1{fill:#FFFFFF;}
	.st2{stroke:#000000;stroke-miterlimit:10;}
</style>
<g>
	<circle class="st0" cx="22.7" cy="22.4" r="22.3"/>
	<g>
		<path class="st1" d="M23,20.9c0,0,3-0.1,2.7-1.9c0,0-0.5-2-4.7-0.8c0,0-3.1,1-3.5,3.7c0,0-0.2,3,6.1,2.6c0,0-4.4,2.1-7.1-1.3
			c0,0-1.8-2.6,2.2-5.4c0,0,3.6-2.6,7.3-0.3c0,0,2,1.3,0.8,3.5c0,0-1.5,2.9-6.5,2.6c0,0-3.5-0.3-0.8-3c0,0,2.6-2.8,4.4-1.8
			C23.9,18.8,25.7,19.7,23,20.9z"/>
		<path class="st1" d="M17,24.7c0,0,1.2,3.8,2.7,4.8c0,0,1.7,1.3,4.7,0.9c0,0,3.4-0.9,3.5-3.6c0,0,0-2.9-0.2-5.2c0,0,1.4,3.5,1.2,6
			c0,0,0,3-3.8,3.9c0,0-3.9,1.2-6.1-0.8C19,30.6,17.1,28.9,17,24.7z"/>
		<path class="st1" d="M27.4,17.9l0.5,0.6l9.2-5.9c0,0,1.3-0.7,1-1.3c0,0-0.1-0.9-1.6,0.2L27.4,17.9z"/>
		<path class="st1" d="M25.3,15.7l-0.7-0.2l5.8-8c0,0,2.7-4.1,3.6-3.5c1.1,0.5-1.8,3.6-1.8,3.6L25.3,15.7z"/>
		<path class="st1" d="M15.7,26.9c0,0,0.3-0.6,0.9-0.2c0,0,0.5,0.3-0.4,1.1L10,35.2l-1.3,1L15.7,26.9z"/>
		<path class="st1" d="M6.3,31.3l7.9-4.3c0,0,1.3-0.6,1-1.1c0,0-0.2-0.6-1,0l-7.4,4.9L6.3,31.3z"/>
	</g>
</g>
<g>
	<path class="st2" d="M79.4,40.9c-0.1-0.3,0.1-1.1,0.5-1.2c1.1-0.1,1.4-1.1,2.1-1.7c0.6-0.5,1-1.2,1.5-1.8c0.3-0.3,0.2-0.6-0.1-0.9
		c-0.7-0.5-1.4-1-2.1-1.4c-1.1-0.8-2.1-1.7-2.7-3c-0.7-1.2-0.7-2.6-0.1-3.9c0.1-0.3,0.3-0.5,0.6-0.7l4.1-3.4c0.4-0.4,1.3-0.4,1.8,0
		c0.5,0.4,1,0.8,1.5,1.2c0.1,0.1,0.2,0.1,0.2,0.2c0.2,0.6,0.4,1.2,0.6,1.8c0,0.2-0.1,0.4-0.1,0.7c-0.9-0.3-1.6-0.6-2.3-0.7
		c-0.6-0.1-1.1-0.1-1.7,0.2c-0.4,0.1-0.8,0.4-1.2,0.3c-0.5,0-0.7,0.2-0.9,0.5c-0.3,0.7-0.7,1.3-1,2c-0.3,0.7-0.1,1.4,0.5,1.9
		c0.6,0.5,1.3,1,1.9,1.6c1.1,1,2.3,2,3.4,3c0.2,0.2,0.3,0.4,0.5,0.7c0.4,0.7,0.3,0.8-0.3,1.5c-0.6,0.7-1.2,1.1-2.2,1.3
		c-0.2,0-0.4,0.2-0.6,0.3c-0.3,0.2-0.6,0.3-1,0.5c-0.3,0.7-0.9,1.3-1.8,1.5C79.9,41.4,79.6,41.3,79.4,40.9z"/>
	<path class="st2" d="M93.3,40.2c-1.1,0.1-1.8-0.4-2-1.5c-0.4-1.4-0.9-2.9-1-4.3c-0.1-1.2-0.4-2.3-0.4-3.5c0-0.3-0.2-0.7-0.2-1
		c-0.1-0.4-0.2-0.7-0.2-1.1c0.1-0.8,0.7-1.1,1.3-0.8c0.6,0.3,1.2,0.5,1.7,0.7c0.8,0.4,1,0.9,0.9,1.8c-0.2,2-0.3,4-0.4,5.9
		c0,0.6-0.1,1.3,0.5,2c0.3-0.3,0.5-0.5,0.7-0.7c1.3-1.9,2.7-3.9,3.5-6.1c0.5-1.3,0.7-2.7,0.7-4.1c0-1.4,0.2-1.5,0.3-2.9
		c0.1-0.6,0.1-1.2,0.2-1.8c0-0.3,0.1-0.6,0.4-0.7c0.5-0.2,1-0.3,1.5-0.5c0.4,0.4,0.5,0.7,0.4,1.1c-0.2,1.7-0.2,2-0.3,3.7
		c-0.1,1.3-0.2,2.5-0.2,3.8c0,1.1,0,2.2,0,3.2c0,0.9,0,1.7,0.1,2.6c0.3,2.1,0.9,3.2,1.8,3.9c-0.7,0-1.6,0-2.5-0.8
		c-1.1-1-1.7-3.5-1.8-4.7C98,35,98,35,97.8,35.2c-0.3,0.6-0.5,1.3-0.8,1.9c-0.4,0.8-0.9,1.6-1.4,2.3c-0.4,0.6-1,0.9-1.8,0.8
		L93.3,40.2z"/>
	<path class="st2" d="M105.6,40.9c-0.1-0.3,0.1-1.1,0.5-1.2c1.1-0.1,1.4-1.1,2.1-1.7c0.6-0.5,1-1.2,1.5-1.8c0.3-0.3,0.2-0.6-0.1-0.9
		c-0.7-0.5-1.4-1-2.1-1.4c-1.1-0.8-2.1-1.7-2.8-3c-0.7-1.2-0.7-2.6-0.1-3.9c0.1-0.3,0.3-0.5,0.6-0.7l4.1-3.4c0.4-0.4,1.3-0.4,1.8,0
		c0.5,0.4,1,0.8,1.5,1.2c0.1,0.1,0.2,0.1,0.2,0.2c0.2,0.6,0.4,1.2,0.6,1.8c0,0.2-0.1,0.4-0.1,0.7c-0.9-0.3-1.6-0.6-2.3-0.7
		c-0.6-0.1-1.1-0.1-1.7,0.2c-0.4,0.1-0.8,0.4-1.2,0.3c-0.5,0-0.7,0.2-0.9,0.5c-0.3,0.7-0.7,1.3-1,2c-0.3,0.7-0.1,1.4,0.5,1.9
		c0.6,0.5,1.3,1,1.9,1.6c1.1,1,2.3,2,3.4,3c0.2,0.2,0.3,0.4,0.5,0.7c0.4,0.7,0.3,0.8-0.3,1.5c-0.6,0.7-1.2,1.1-2.2,1.3
		c-0.2,0-0.4,0.2-0.6,0.3c-0.3,0.2-0.6,0.3-1,0.5c-0.3,0.7-0.9,1.3-1.8,1.5C106.2,41.4,105.8,41.3,105.6,40.9z"/>
	<path class="st2" d="M124.3,44l-0.3-7c-0.1-1.2-0.2-2.3-0.3-3.5c-0.1-0.9-0.3-1-1.2-0.9c-0.3,0-0.7,0.1-1,0.2
		c-1,0.2-1.5,0.8-1.5,1.8c0,1,0,2.1-0.3,3.1c-0.2,0.4-0.2,0.8-0.7,0.8c-0.4,0.1-0.7-0.2-0.8-0.6c-0.3-1.1-0.9-2-0.9-3.2
		c0-0.1,0-0.2,0-0.4c-0.3-1.5-0.6-3-0.9-4.5c-0.1-0.6-0.3-1.1-0.8-1.4c-0.2-0.1-0.3-0.3-0.4-0.6c-0.2-0.4,0.2-0.8,0.6-0.6
		c1.1,0.4,2.3,0.6,3.4,1.3c0.8,0.6,1.2,1.2,1.1,2.2c-0.1,0.3-0.1,0.6-0.1,1.1c1.2-0.2,2.2-0.3,3.4-0.4c0-0.4,0-0.7,0-1
		c-0.1-1.6-0.4-3.2-0.5-4.7c0-0.9-0.3-1.6-0.9-2.2c-0.3-0.3-0.7-0.5-0.4-1.3c0.7,0.2,1.4,0.3,2,0.6c0.8,0.4,1.5,0.9,2.2,1.4
		c0.6,0.5,0.6,0.7,0.3,1.3c-0.2,0.4-0.3,0.8-0.3,1.2c-0.1,1-0.1,2.1-0.2,3.1c-0.1,0.7-0.1,1.3,0.4,1.9c0.1,0.1-0.1,0.5-0.1,0.7
		c0,0.3-0.2,0.6-0.2,0.9c-0.1,2.8-0.2,5.5-0.2,8.3c0,0.7,0,1.3-0.1,2c0,0.4-0.2,0.8-0.9,0.9C124.3,44.3,124.3,44.2,124.3,44z"/>
	<path class="st2" d="M128,28c0.4-0.5,0.9-0.7,1.5-0.2c0.5,0.3,0.8,0.5,1.3,0.9c0.4,0.4,0,1.4-1.2,1.9C128.1,29.4,128.2,29.5,128,28
		z M129.4,38.7c-0.2-0.9-0.3-2.7-0.3-2.9c-0.1-1.1,0.2-2.1-1-2.7c1-0.4,1.4-0.1,2,0.4c0.5,0.4,0.9,0.9,0.7,1.6
		c-0.1,0.4-0.1,1.9-0.3,3.7c-0.1,0.6-0.2,1.1-0.2,1.1C130,39.8,129.5,39.3,129.4,38.7z"/>
</g>
<g>
	<path d="M64.1,0.2l-7.1,3c5.6,4.4,2.6,14.3,2.6,14.3c-3.2-1-5.5-3.9-5.5-3.9L50,17c3.2,2.8,6.4,3.3,9,3.1l-0.2,0.7L60,20
		c2.7-0.5,4.5-1.7,4.5-1.7c-1.8,0.3-2.7-0.3-2.7-0.3C67,11.3,64.1,0.2,64.1,0.2z"/>
	<path d="M73.6,4.7l1.7,1.7c-3.8,1.2-6.1,5.3-6.1,5.3L66.5,11l-1.3,4.5l2.5,0.4c-0.5,1.6-0.6,4.2-0.6,4.2l6,1l-0.1-5.6
		c3.4-0.1,6.6-3.5,6.6-3.5c1.8,1.3,1.2,8.8,1.2,8.8c1.6-2.5,2.7-7,2.7-7C85.2,8,79.7,1.4,79.7,1.4L73.6,4.7z M74.3,11.8
		c0.4-2.1,2-4.1,2-4.1c1.8,0.5,2.7,3,2.7,3C76.6,12,74.3,11.8,74.3,11.8z"/>
	<path d="M95.1,13.6c5.8-1.9,5.1-5.7,5.1-5.7c-0.3-5.5-8.4-5.8-8.4-5.8c-0.3,0-0.7-0.1-1.1,0l-0.1-0.7l-0.8,0.7l-3.1,0l1.6,0.3
		C86,3,83.9,3.9,83.9,3.9c4,6.5,1.7,17.1,1.7,17.1l3.6-5.4l3.8-1.1c3.1,2.3,4.8,7.1,4.8,7.1l5.8-1.7C101.6,14.3,95.1,13.6,95.1,13.6
		z M91.1,12.8c1-4.8,0.2-8.6,0.2-8.6C98.1,8.8,91.1,12.8,91.1,12.8z"/>
	<path d="M109.6,16.9c0.9-1.3,1.6-4.4,1.6-4.4l7.5,0.7l0.5-4.6l-7.6,1.5c0.2-0.8,0.1-2.7,0.1-2.7c6.9,0,8.9-2.5,8.9-2.5L116.7,1
		c-1.9,2.7-5.3,3.9-5.3,3.9c-0.3-2.3-1.2-3.6-1.2-3.6L103.8,4c2.2,2.7,2.9,7.1,2.9,7.1L105,12l1.6,0.1c0.5,2.3-0.3,6.3-0.3,6.3
		l-1.4,1.2l1.2-0.1l-0.6,1.8c1.4-0.6,2.5-2.2,2.5-2.2c8.4-0.8,9.8,2.5,9.8,2.5l3-5.5C115.6,14.5,109.6,16.9,109.6,16.9z"/>
	<path d="M131.4,10.7c4.5-2.1,6.7-7.2,6.7-7.2L132.5,2c-1.6,6-3.6,7.5-3.6,7.5c0.8-3.7-0.4-8.3-0.4-8.3l-7.4,2.6
		c3,3.5,2.7,9.4,2.7,9.4l-1.2,1.8l1.2-0.6c0.2,1.8-0.7,6.6-0.7,6.6c3.4-2.3,5.7-9.1,5.7-9.1c3.6,2.5,6.7,9.7,6.7,9.7l5.4-1.8
		C138.3,12,131.4,10.7,131.4,10.7z"/>
	<path d="M152.8,2.2c1.4,11.6-4.2,15.3-4.2,15.3c-4.8-5.8-0.4-16.9-0.4-16.9C138,8.4,142,21.4,142,21.4l4.9-1.4l-0.6,1
		c13.8-4.4,13.8-17.8,13.8-17.8L152.8,2.2z"/>
</g>
</svg>
